<svg width="1024" height="1024" viewBox="0 0 1024 1024" fill="none" xmlns="http://www.w3.org/2000/svg">
  <defs>
    <linearGradient id="bg" x1="164" y1="112" x2="855" y2="920" gradientUnits="userSpaceOnUse">
      <stop offset="0" stop-color="#0F3D91"/>
      <stop offset="1" stop-color="#082145"/>
    </linearGradient>
    <linearGradient id="card" x1="286" y1="250" x2="694" y2="770" gradientUnits="userSpaceOnUse">
      <stop offset="0" stop-color="#FFFFFF"/>
      <stop offset="1" stop-color="#E7EEF8"/>
    </linearGradient>
    <linearGradient id="accent" x1="640" y1="593" x2="804" y2="797" gradientUnits="userSpaceOnUse">
      <stop offset="0" stop-color="#FF7A6B"/>
      <stop offset="1" stop-color="#E53E3E"/>
    </linearGradient>
    <filter id="shadow" x="208" y="179" width="627" height="665" filterUnits="userSpaceOnUse" color-interpolation-filters="sRGB">
      <feFlood flood-opacity="0" result="BackgroundImageFix"/>
      <feColorMatrix in="SourceAlpha" type="matrix" values="0 0 0 0 0 0 0 0 0 0 0 0 0 0 0 0 0 0 127 0" result="hardAlpha"/>
      <feOffset dy="28"/>
      <feGaussianBlur stdDeviation="24"/>
      <feColorMatrix type="matrix" values="0 0 0 0 0.0196078 0 0 0 0 0.0823529 0 0 0 0 0.176471 0 0 0 0.25 0"/>
      <feBlend mode="normal" in2="BackgroundImageFix" result="effect1_dropShadow_1_1"/>
      <feBlend mode="normal" in="SourceGraphic" in2="effect1_dropShadow_1_1" result="shape"/>
    </filter>
  </defs>

  <rect x="64" y="64" width="896" height="896" rx="224" fill="url(#bg)"/>
  <circle cx="775" cy="270" r="102" fill="#1D4ED8" fill-opacity="0.22"/>
  <circle cx="242" cy="760" r="132" fill="#34D399" fill-opacity="0.14"/>

  <g filter="url(#shadow)">
    <path d="M315 227C315 209.327 329.327 195 347 195H645.431C653.918 195 662.058 198.37 668.059 204.372L745.628 281.941C751.63 287.942 755 296.082 755 304.569V765C755 782.673 740.673 797 723 797H347C329.327 797 315 782.673 315 765V227Z" fill="url(#card)"/>
    <path d="M648 195L755 302H680C662.327 302 648 287.673 648 270V195Z" fill="#C7D8ED"/>
  </g>

  <rect x="395" y="348" width="214" height="32" rx="16" fill="#0F3D91" fill-opacity="0.18"/>
  <rect x="395" y="416" width="278" height="32" rx="16" fill="#0F3D91" fill-opacity="0.18"/>
  <rect x="395" y="484" width="188" height="32" rx="16" fill="#0F3D91" fill-opacity="0.18"/>

  <circle cx="414" cy="631" r="62" fill="#DBEAFE"/>
  <path d="M414 596V667" stroke="#0F3D91" stroke-width="26" stroke-linecap="round"/>
  <path d="M448 634C448 654.987 432.33 672 414 672C395.67 672 380 654.987 380 634C380 615.893 393.734 600.703 410.934 597.936" stroke="#0F3D91" stroke-width="24" stroke-linecap="round"/>
  <path d="M377 620L414 583L451 620" stroke="#0F3D91" stroke-width="24" stroke-linecap="round" stroke-linejoin="round"/>

  <g>
    <rect x="566" y="548" width="224" height="224" rx="72" fill="url(#accent)"/>
    <path d="M627 606H726V651H682V722H671L630 681L658 653H627V606Z" fill="white"/>
    <path d="M729 679L652 756" stroke="white" stroke-width="28" stroke-linecap="round"/>
  </g>
</svg>
